<svg width="883" height="378" viewBox="0 0 883 378" fill="none" xmlns="http://www.w3.org/2000/svg">
<path d="M86 280H190V272H98L264 5.99998H208.5L86 280ZM166 375H286.5V367H259V280H284V272H259V181H203.5V367H166V375ZM529.398 280H633.398V272H541.398L707.398 5.99998H651.898L529.398 280ZM609.398 375H729.898V367H702.398V280H727.398V272H702.398V181H646.898V367H609.398V375Z" fill="#231F20"/>
<path d="M411.258 377.5V371C389.758 367 381.258 353 381.258 333V232L455.258 160V333C455.258 353 446.758 367 424.758 371V377.5C472.758 374 511.258 334.5 511.258 286V95C511.258 46.5 472.758 6.99997 424.758 3.49998V9.99999C446.758 14.5 455.258 28 455.258 48V148L381.258 220V48C381.258 28 389.758 14.5 411.258 9.99999V3.49998C363.758 6.99997 325.258 46.5 325.258 95V286C325.258 334.5 363.758 374 411.258 377.5Z" fill="#F2ECDC"/>
<ellipse cx="67.5" cy="84.5" rx="67.5" ry="67.5" transform="rotate(-180 67.5 84.5)" fill="#231F20"/>
<path d="M19.9213 96.021L33.3237 72.8074L46.7261 96.021L19.9213 96.021Z" fill="#D4B533"/>
<path d="M88.8862 96.061L102.289 72.8474L115.691 96.061L88.8862 96.061Z" fill="#D4B533"/>
<ellipse cx="67.5002" cy="85.0791" rx="11.8777" ry="12.4571" fill="#F2ECDC"/>
<rect x="763" y="137" width="120" height="75" fill="white"/>
<rect x="763" y="228" width="120" height="134" fill="#F2ECDC"/>
<rect x="777" y="276" width="21.3333" height="23.3333" fill="white"/>
<rect x="777" y="239.333" width="21.3333" height="24" fill="white"/>
<rect x="812.333" y="276" width="21.3333" height="23.3333" fill="white"/>
<rect x="812.333" y="239.333" width="21.3333" height="24" fill="white"/>
<rect x="847.667" y="239.333" width="21.3333" height="24" fill="white"/>
<rect x="847.667" y="276" width="21.3333" height="23.3333" fill="#D4B533"/>
<rect x="777" y="312.667" width="21.3333" height="23.3333" fill="#D4B533"/>
<rect x="812.333" y="312.667" width="21.3333" height="23.3333" fill="white"/>
<rect x="847.667" y="312.667" width="21.3333" height="23.3333" fill="white"/>
<rect x="777" y="348.667" width="21.3333" height="24" fill="white"/>
<rect x="812.333" y="348.667" width="21.3333" height="24" fill="white"/>
<rect x="847.667" y="348.667" width="21.3333" height="24" fill="#D4B533"/>
<path d="M763 0H823C856.137 0 883 26.8629 883 60V123H763V0Z" fill="#231F20"/>
<ellipse cx="421.5" cy="190.5" rx="67.5" ry="67.5" transform="rotate(-180 421.5 190.5)" fill="#231F20"/>
<path fill-rule="evenodd" clip-rule="evenodd" d="M481.228 191C469.592 211.313 447.702 225 422.614 225C397.526 225 375.635 211.313 364 191C375.635 170.687 397.526 157 422.614 157C447.702 157 469.592 170.687 481.228 191Z" fill="white"/>
<circle cx="423" cy="191" r="27" fill="#3C7FA3"/>
<circle cx="423" cy="191" r="10" fill="#231F20"/>
</svg>
